<svg width="32" height="32" xmlns="http://www.w3.org/2000/svg">

 <g>
  <title>background</title>
  <rect fill="none" id="canvas_background" height="402" width="582" y="-1" x="-1"/>
 </g>
 <g>
  <title>Layer 1</title>
  <path id="svg_2" fill="#d84315" d="m22.417,14.836c-1.209,2.763 -3.846,5.074 -6.403,5.074c-3.122,0 -5.39,-2.284 -6.599,-5.046c-7.031,3.642 -6.145,12.859 -6.145,12.859c0,1.262 0.994,1.445 2.162,1.445l10.581,0l10.565,0c1.17,0 2.167,-0.184 2.167,-1.445c0.001,0 0.702,-9.244 -6.328,-12.887z"/>
  <path id="svg_3" fill="#d84315" d="m16.013,18.412c3.521,0 6.32,-5.04 6.32,-9.204c0,-4.165 -2.854,-7.541 -6.375,-7.541c-3.521,0 -6.376,3.376 -6.376,7.541c0,4.165 2.909,9.204 6.431,9.204z"/>
 </g>
</svg>