<?xml version="1.0" ?><svg viewBox="0 0 64 64" xmlns="http://www.w3.org/2000/svg"><defs><style>.cls-1{fill:#fdf57a;}.cls-2{fill:#fcc062;}.cls-3{fill:#fdd089;}.cls-4{fill:#a58961;}.cls-5{fill:#c7b07b;}.cls-6{fill:#b8b0a8;}.cls-7{fill:#f5ebe0;}.cls-8{fill:none;stroke:#000;stroke-linejoin:round;stroke-width:2px;}</style></defs><title/><g data-name="Layer 17" id="Layer_17"><ellipse class="cls-1" cx="32" cy="6" rx="11" ry="4"/><circle class="cls-2" cx="32" cy="24" r="10"/><ellipse class="cls-3" cx="30.5" cy="24" rx="8.5" ry="9.88"/><path class="cls-4" d="M32,14A10,10,0,0,0,22,24,10,10,0,0,0,32,14Z"/><path class="cls-5" d="M10,50h0a4,4,0,0,1-4-4V44H6a4,4,0,0,1-4-4V38H23V56H14a4,4,0,0,1-4-4V50"/><path class="cls-5" d="M54,50h0a4,4,0,0,0,4-4V44h0a4,4,0,0,0,4-4V38H41V56h9a4,4,0,0,0,4-4V50"/><path class="cls-6" d="M32,34h0A12,12,0,0,1,44,46V62a0,0,0,0,1,0,0H20a0,0,0,0,1,0,0V46A12,12,0,0,1,32,34Z"/><path class="cls-7" d="M30.5,34.1A12,12,0,0,0,20,46V62H41V46A12,12,0,0,0,30.5,34.1Z"/><path class="cls-4" d="M38.24,35.76,20,54v6L41.42,38.58A12.08,12.08,0,0,0,38.24,35.76Z"/><circle class="cls-8" cx="32" cy="24" r="10"/><path class="cls-8" d="M32,14h0A10,10,0,0,1,22,24h0"/><path class="cls-4" d="M42,24A10,10,0,0,1,32,14,10,10,0,0,1,42,24Z"/><path class="cls-8" d="M32,14h0A10,10,0,0,0,42,24h0"/><path class="cls-8" d="M44,56h6a4,4,0,0,0,4-4V50"/><path class="cls-8" d="M51,44h7a4,4,0,0,0,4-4V38H40.94"/><path class="cls-8" d="M58,44v2a4,4,0,0,1-4,4H49"/><path class="cls-8" d="M58,44v2a4,4,0,0,1-4,4H49"/><path class="cls-8" d="M20,56H14a4,4,0,0,1-4-4V50"/><path class="cls-8" d="M13,44H6a4,4,0,0,1-4-4V38H23.06"/><path class="cls-8" d="M6,44v2a4,4,0,0,0,4,4h5"/><path class="cls-8" d="M32,34h0A12,12,0,0,1,44,46V62a0,0,0,0,1,0,0H20a0,0,0,0,1,0,0V46A12,12,0,0,1,32,34Z"/><ellipse class="cls-8" cx="32" cy="6" rx="11" ry="4"/><line class="cls-8" x1="38" x2="20" y1="36" y2="54"/><line class="cls-8" x1="41" x2="20" y1="39" y2="60"/></g></svg>