<?xml version="1.0" ?><svg id="icon" viewBox="0 0 512 512" xmlns="http://www.w3.org/2000/svg"><defs><style>.cls-1{fill:#daa748;stroke-linejoin:round;stroke-width:10px;}.cls-1,.cls-2{stroke:#526b77;}.cls-2{fill:#f7e6b2;stroke-miterlimit:10;stroke-width:5px;}.cls-3{fill:#e2e155;}.cls-4{fill:#526b77;}</style></defs><title/><circle class="cls-1" cx="256" cy="256" r="128"/><circle class="cls-2" cx="256" cy="256" r="96.95"/><path class="cls-3" d="M295.4,319.13a2.5,2.5,0,0,1-1.47-.48L256,291.09l-37.93,27.56a2.5,2.5,0,0,1-3.85-2.79l14.49-44.59-37.93-27.56a2.5,2.5,0,0,1,1.47-4.52h46.88l14.49-44.59a2.5,2.5,0,0,1,4.76,0l14.49,44.59h46.88a2.5,2.5,0,0,1,1.47,4.52l-37.93,27.56,14.49,44.59a2.5,2.5,0,0,1-2.38,3.27Z"/><path class="cls-4" d="M256,195.37l15,46.31h48.7l-39.4,28.62,15,46.31L256,288l-39.4,28.62,15-46.31-39.4-28.62H241l15-46.31m63.75,46.31h0M256,190.37a5,5,0,0,0-4.76,3.45l-13.93,42.86H192.25a5,5,0,0,0-2.94,9l36.46,26.49-13.93,42.86a5,5,0,0,0,7.69,5.59L256,294.18l36.46,26.49a5,5,0,0,0,7.69-5.59l-13.93-42.86,36.38-26.43a5,5,0,0,0-2.86-9.1H274.68l-13.93-42.86a5,5,0,0,0-4.76-3.45Z"/></svg>