<?xml version="1.0" ?><svg id="icon" viewBox="0 0 512 512" xmlns="http://www.w3.org/2000/svg"><defs><style>.cls-1{fill:#35454b;}.cls-1,.cls-2,.cls-3{stroke:#526b77;}.cls-1,.cls-2{stroke-linejoin:round;stroke-width:10px;}.cls-2{fill:#daa748;}.cls-3{fill:#f7e6b2;stroke-miterlimit:10;stroke-width:5px;}.cls-4{fill:#e2e155;}.cls-5{fill:#526b77;}</style></defs><title/><polygon class="cls-1" points="448 212.95 411.9 255.97 448 299.05 247.95 299.05 247.95 212.95 448 212.95"/><polygon class="cls-1" points="64 213.14 100.14 256.1 64.16 299.24 264.11 298.86 263.95 212.76 64 213.14"/><circle class="cls-2" cx="256" cy="256" r="119.83"/><circle class="cls-3" cx="256" cy="256" r="90.76"/><path class="cls-4" d="M288.85,309a2.5,2.5,0,0,1-1.47-.48L256,285.77l-31.38,22.8a2.5,2.5,0,0,1-3.85-2.79l12-36.89-31.38-22.8a2.5,2.5,0,0,1,1.47-4.52h38.79l12-36.89a2.5,2.5,0,0,1,4.76,0l12,36.89h38.79a2.5,2.5,0,0,1,1.47,4.52l-31.38,22.8,12,36.89a2.5,2.5,0,0,1-2.38,3.27Z"/><path class="cls-5" d="M256,205.45l12.55,38.62h40.6L276.3,267.93l12.55,38.62L256,282.68l-32.85,23.87,12.55-38.62-32.85-23.87h40.6L256,205.45m53.15,38.62h0M256,200.45a5,5,0,0,0-4.76,3.45l-11.42,35.16h-37a5,5,0,0,0-2.94,9l29.91,21.73L218.4,305a5,5,0,0,0,7.69,5.59L256,288.86l29.91,21.73A5,5,0,0,0,293.6,305l-11.42-35.16L312,248.17a5,5,0,0,0-2.86-9.1h-37l-11.42-35.16a5,5,0,0,0-4.76-3.45Z"/></svg>